<svg xmlns="http://www.w3.org/2000/svg" width="32" height="32" fill="none"><rect width="32" height="32" fill="#fff" rx="8"/><path stroke="#6320EE" stroke-linecap="round" stroke-width="2" d="M21.194 16c0 2.857-.458 5.616-1.289 7.765-.83 2.148-1.978 3.537-3.227 3.91a2.36 2.36 0 0 1-.678.101c-.563 0-1.127-.208-1.67-.625-1.193-.918-2.198-2.789-2.829-5.263M20.5 10.112c-.63-2.474-1.636-4.345-2.83-5.263-.541-.417-1.106-.625-1.669-.625-.226 0-.452.033-.678.1-1.25.373-2.396 1.763-3.227 3.911s-1.29 4.908-1.29 7.765"/><path stroke="#6320EE" stroke-linecap="round" stroke-width="2" d="M19.673 19.673c-2.02 2.02-4.295 3.648-6.402 4.579-2.106.931-3.9 1.103-5.047.483a2.364 2.364 0 0 1-.551-.408c-.398-.398-.65-.944-.739-1.623-.194-1.493.418-3.526 1.722-5.721m14.688-1.966c1.304-2.195 1.916-4.228 1.722-5.721-.089-.679-.34-1.225-.739-1.623a2.363 2.363 0 0 0-.55-.408c-1.148-.62-2.942-.448-5.048.483-2.107.931-4.382 2.559-6.402 4.579"/><path stroke="#6320EE" stroke-linecap="round" stroke-width="2" d="M16 21.195c-2.857 0-5.617-.459-7.765-1.29-2.148-.83-3.537-1.978-3.91-3.227A2.362 2.362 0 0 1 4.224 16c0-.563.208-1.127.625-1.67.918-1.193 2.789-2.198 5.263-2.828m11.776 8.997c2.474-.63 4.345-1.636 5.263-2.83.417-.541.625-1.105.625-1.669 0-.226-.033-.452-.1-.678-.374-1.25-1.763-2.396-3.911-3.227-2.149-.831-4.908-1.29-7.765-1.29"/><path stroke="#6320EE" stroke-linecap="round" stroke-width="2" d="M12.327 19.673c-2.02-2.02-3.648-4.295-4.579-6.402-.931-2.106-1.103-3.9-.483-5.047.112-.208.248-.391.408-.551.398-.398.944-.65 1.623-.739 1.493-.194 3.526.418 5.721 1.722m1.966 14.688c2.195 1.304 4.228 1.916 5.721 1.722.679-.089 1.225-.34 1.623-.739.16-.16.296-.343.408-.55.62-1.148.448-2.942-.483-5.048-.931-2.107-2.559-4.382-4.579-6.402"/></svg>